  0
SECTION
  2
HEADER
  9
$ACADVER
  1
AC1009
  9
$INSBASE
 10
0.0
 20
0.0
 30
0.0
  9
$EXTMIN
 10
0.0
 20
0.0
 30
0.0
  9
$EXTMAX
 10
0.0
 20
0.0
 30
0.0
  0
ENDSEC
  0
SECTION
  2
TABLES
  0
TABLE
  2
VPORT
 70
0
  0
ENDTAB
  0
TABLE
  2
LTYPE
 70
1
  0
LTYPE
  2
CONTINUOUS
 70
0
  3
Solid line
 72
65
 73
0
 40
0.0
  0
ENDTAB
  0
TABLE
  2
LAYER
 70
1
  0
LAYER
  2
0
 70
64
 62
7
  6
continuous
  0
ENDTAB
  0
TABLE
  2
STYLE
 70
1
  0
STYLE
  2
STANDARD
 70
0
 40
0
 41
1.0
 50
0.0
 71
0
 42
1
 3
ARIAL.TTF
 4

  0
ENDTAB
  0
TABLE
  2
VIEW
 70
0
  0
ENDTAB
  0
ENDSEC
  0
SECTION
  2
BLOCKS
  0
ENDSEC
  0
SECTION
  2
ENTITIES
  0
POLYLINE
  8
0
 62
7
 70
1
 66
1
 10
0.0
 20
0.0
 30
0.0
  0
VERTEX
  8
0
 10
37.50000000003381
 20
-1.851128519383584e-129
 30
0.0
  0
VERTEX
  8
0
 10
37.165405805837764
 20
4.852668544503645
 30
0.0
  0
VERTEX
  8
0
 10
36.16759406457173
 20
9.618741103868771
 30
0.0
  0
VERTEX
  8
0
 10
34.5243707503972
 20
14.213167000363152
 30
0.0
  0
VERTEX
  8
0
 10
32.265059222284314
 20
18.553958595019875
 30
0.0
  0
VERTEX
  8
0
 10
29.42997694797632
 20
22.56365435899703
 30
0.0
  0
VERTEX
  8
0
 10
26.069716037822587
 20
26.170701176394985
 30
0.0
  0
VERTEX
  8
0
 10
22.24424042737088
 20
29.310731211304752
 30
0.0
  0
VERTEX
  8
0
 10
18.021815819516892
 20
31.927710553364673
 30
0.0
  0
VERTEX
  8
0
 10
13.47779148141888
 20
33.9749391442183
 30
0.0
  0
VERTEX
  8
0
 10
8.693255635040146
 20
35.415884141162095
 30
0.0
  0
VERTEX
  8
0
 10
3.7535884359070755
 20
36.224831846588984
 30
0.0
  0
VERTEX
  8
0
 10
-1.253061637788924
 20
36.387346569531296
 30
0.0
  0
VERTEX
  8
0
 10
-6.237350796872999
 20
35.90052823090807
 30
0.0
  0
VERTEX
  8
0
 10
-11.110334283221285
 20
34.773064115504994
 30
0.0
  0
VERTEX
  8
0
 10
-15.785053591076789
 20
33.025073847171555
 30
0.0
  0
VERTEX
  8
0
 10
-20.178088243644662
 20
30.687750353656806
 30
0.0
  0
VERTEX
  8
0
 10
-24.211044433476918
 20
27.80280322807475
 30
0.0
  0
VERTEX
  8
0
 10
-27.811953961823484
 20
24.421714420227065
 30
0.0
  0
VERTEX
  8
0
 10
-30.91655851284389
 20
20.604819539989272
 30
0.0
  0
VERTEX
  8
0
 10
-33.46945634477572
 20
16.420231166923134
 30
0.0
  0
VERTEX
  8
0
 10
-35.42509093532889
 20
11.942623379680768
 30
0.0
  0
VERTEX
  8
0
 10
-36.748563938905136
 20
7.2518991953019825
 30
0.0
  0
VERTEX
  8
0
 10
-37.41625794840198
 20
2.431764697982354
 30
0.0
  0
VERTEX
  8
0
 10
-37.41625794840198
 20
-2.431764697982345
 30
0.0
  0
VERTEX
  8
0
 10
-36.748563938905136
 20
-7.2518991953019745
 30
0.0
  0
VERTEX
  8
0
 10
-35.42509093532889
 20
-11.942623379680757
 30
0.0
  0
VERTEX
  8
0
 10
-33.46945634477572
 20
-16.420231166923138
 30
0.0
  0
VERTEX
  8
0
 10
-30.916558512843892
 20
-20.604819539989265
 30
0.0
  0
VERTEX
  8
0
 10
-27.811953961823487
 20
-24.421714420227058
 30
0.0
  0
VERTEX
  8
0
 10
-24.21104443347692
 20
-27.802803228074744
 30
0.0
  0
VERTEX
  8
0
 10
-20.178088243644673
 20
-30.687750353656803
 30
0.0
  0
VERTEX
  8
0
 10
-15.785053591076798
 20
-33.02507384717155
 30
0.0
  0
VERTEX
  8
0
 10
-11.110334283221293
 20
-34.773064115504994
 30
0.0
  0
VERTEX
  8
0
 10
-6.237350796873001
 20
-35.90052823090807
 30
0.0
  0
VERTEX
  8
0
 10
-1.2530616377889252
 20
-36.387346569531296
 30
0.0
  0
VERTEX
  8
0
 10
3.753588435907075
 20
-36.224831846588984
 30
0.0
  0
VERTEX
  8
0
 10
8.693255635040153
 20
-35.415884141162095
 30
0.0
  0
VERTEX
  8
0
 10
13.477791481418889
 20
-33.9749391442183
 30
0.0
  0
VERTEX
  8
0
 10
18.0218158195169
 20
-31.92771055336467
 30
0.0
  0
VERTEX
  8
0
 10
22.244240427370883
 20
-29.31073121130475
 30
0.0
  0
VERTEX
  8
0
 10
26.069716037822573
 20
-26.170701176395
 30
0.0
  0
VERTEX
  8
0
 10
29.429976947976307
 20
-22.563654358997045
 30
0.0
  0
VERTEX
  8
0
 10
32.26505922228431
 20
-18.55395859501989
 30
0.0
  0
VERTEX
  8
0
 10
34.5243707503972
 20
-14.213167000363166
 30
0.0
  0
VERTEX
  8
0
 10
36.16759406457172
 20
-9.618741103868782
 30
0.0
  0
VERTEX
  8
0
 10
37.16540580583776
 20
-4.852668544503656
 30
0.0
  0
SEQEND
  8
0
  0
ENDSEC
  0
EOF
